<?xml version="1.0" encoding="utf-8"?>
<!-- Generator: Adobe Illustrator 24.1.1, SVG Export Plug-In . SVG Version: 6.00 Build 0)  -->
<svg version="1.1" id="Layer_1" xmlns="http://www.w3.org/2000/svg" xmlns:xlink="http://www.w3.org/1999/xlink" x="0px" y="0px"
	 viewBox="0 0 1080 1080" style="enable-background:new 0 0 1080 1080;" xml:space="preserve">
<style type="text/css">
	.st0{fill:#D8D6D6;}
	.st1{fill:#EE334E;}
</style>
<g>
	<g>
		<path class="st1" d="M279.43,484.94H234.4l-1.5,9.52c-1.57,8.77,4.38,15.65,12.84,15.65h58.86c6.77,0,13.01,1.27,18.64,3.49
			C316.55,496.54,300.36,484.94,279.43,484.94z"/>
		<path d="M323.24,513.6c3.21,8.2,4.26,17.64,2.53,27.69l-2.5,13.78c-5.32,30.99-35.07,56.36-66.06,56.36h-78.66l-12.01,25.17
			h115.84c30.99,0,60.74-25.36,66.06-56.36l2.5-13.78C355.1,542.25,343.34,521.53,323.24,513.6z"/>
	</g>
	<g>
		<path class="st1" d="M193.77,492.75c5.32-30.99,35.38-56.36,66.37-56.36h62.9l12.11-25.17H234.97c-31,0-61.05,25.36-66.37,56.36
			l-2.51,13.77c-4.16,24.22,7.59,44.94,27.7,52.87c-3.21-8.2-4.26-17.64-2.53-27.7L193.77,492.75z"/>
		<path d="M237.6,562.87h44.75l1.46-9.52c1.57-8.77-4.07-15.66-12.84-15.66h-58.55c-6.77,0-13.01-1.27-18.63-3.49
			C200.47,551.28,216.66,562.87,237.6,562.87z"/>
	</g>
</g>
<g>
	<path d="M461.28,466.7c-2.47,14.36-16.24,26.1-30.6,26.1h-53.65l9.14-19.14h47.42c4.06,0,7.83-3.34,8.56-7.25l0.87-5.66
		c0.73-4.06-1.89-7.25-5.94-7.25h-27.12c-14.36,0-23.93-11.75-21.46-26.1l1.16-6.38c2.46-14.36,16.39-26.1,30.74-26.1h46.4
		l-9.28,19.29H417.2c-3.91,0-7.83,3.19-8.56,7.25l-0.87,5.51c-0.73,4.06,2.03,7.25,5.95,7.25h27.26c14.36,0,23.93,11.75,21.46,26.1
		L461.28,466.7z"/>
	<path d="M547.12,473.66c-1.89,10.59-11.89,19.14-22.62,19.14h-26.68l-2.46-19.14h28.71c2.17,0,4.06-1.74,4.49-3.92l6.67-38.43
		c0.43-2.18-0.87-3.77-3.05-3.77h-34.66l-15.81,89.47h-19.14l19.14-108.76h19.14l-1.6,9.57l11.31-9.57h28.71
		c10.73,0,17.84,8.56,15.95,19.29L547.12,473.66z"/>
	<path d="M625.85,431.31c0.43-2.18-0.87-3.77-3.05-3.77h-30.74c-2.17,0-4.2,1.59-4.64,3.77l-6.67,38.43
		c-0.43,2.18,1.01,3.92,3.19,3.92h49.88l-8.99,19.14h-48.14c-10.59,0-17.69-8.56-15.81-19.14l8.12-46.11
		c1.89-10.73,11.89-19.29,22.48-19.29h38.43c10.73,0,17.84,8.56,15.95,19.29l-5.8,32.63h-48l9.28-19.29h22.91L625.85,431.31z"/>
	<path d="M711.97,492.8h-44.66c-10.59,0-17.69-8.56-15.81-19.14l8.12-46.11c1.89-10.73,11.89-19.29,22.48-19.29h44.66l-9.14,19.29
		h-34.95c-2.17,0-4.2,1.59-4.64,3.77l-6.67,38.43c-0.43,2.18,1.01,3.92,3.19,3.92h40.75L711.97,492.8z"/>
	<path d="M774.61,473.66l-3.34,19.14h-27.12c-10.59,0-17.69-8.56-15.81-19.14l14.94-84.54h19.14l-3.48,19.14h27.12l-9.14,19.29
		h-21.32l-7.4,42.2c-0.43,2.18,1.01,3.92,3.19,3.92H774.61z"/>
	<path d="M834.34,427.54h-16.96c-2.18,0-4.21,1.59-4.64,3.77l-10.73,61.48h-19.14l14.79-84.54h19.14l-1.6,9.57l11.31-9.57h16.82
		L834.34,427.54z"/>
	<path d="M905.4,492.8h-19.29l1.59-9.57l-11.16,9.57h-28.86c-10.59,0-17.69-8.56-15.81-19.14l2.32-13.49
		c1.88-10.59,12.04-19.29,22.62-19.29h25.67l2.17,19.29h-27.41c-2.18,0-4.21,1.74-4.5,3.77l-1.01,5.8
		c-0.43,2.18,1.01,3.92,3.19,3.92h34.51l7.39-42.34c0.43-2.18-0.87-3.77-3.05-3.77h-46.11l9.13-19.29h44.08
		c10.73,0,17.84,8.56,15.95,19.29L905.4,492.8z"/>
</g>
<g>
	<path d="M461.28,608.52c-2.47,14.36-16.24,26.1-30.6,26.1h-53.65l9.14-19.14h47.42c4.06,0,7.83-3.34,8.56-7.25l0.87-5.66
		c0.73-4.06-1.89-7.25-5.94-7.25h-27.12c-14.36,0-23.93-11.74-21.46-26.1l1.16-6.38c2.46-14.36,16.39-26.1,30.74-26.1h46.4
		l-9.28,19.29H417.2c-3.91,0-7.83,3.19-8.56,7.25l-0.87,5.51c-0.73,4.06,2.03,7.25,5.95,7.25h27.26c14.36,0,23.93,11.75,21.46,26.11
		L461.28,608.52z"/>
	<path d="M547.12,615.48c-1.89,10.59-11.89,19.14-22.62,19.14h-26.68l-2.46-19.14h28.71c2.17,0,4.06-1.74,4.49-3.92l6.67-38.43
		c0.43-2.18-0.87-3.77-3.05-3.77h-34.66l-15.81,89.47h-19.14l19.14-108.76h19.14l-1.6,9.57l11.31-9.57h28.71
		c10.73,0,17.84,8.56,15.95,19.29L547.12,615.48z"/>
	<path d="M645.86,569.36l-8.12,46.11c-1.89,10.59-11.89,19.14-22.62,19.14h-38.43c-10.59,0-17.69-8.56-15.81-19.14l8.12-46.11
		c1.89-10.73,11.89-19.29,22.48-19.29h38.43C640.64,550.07,647.74,558.63,645.86,569.36z M625.85,573.13
		c0.43-2.18-0.87-3.77-3.05-3.77h-30.74c-2.17,0-4.2,1.59-4.64,3.77l-6.67,38.43c-0.43,2.18,1.01,3.92,3.19,3.92h30.74
		c2.17,0,4.06-1.74,4.49-3.92L625.85,573.13z"/>
	<path d="M699.65,569.36h-16.97c-2.17,0-4.2,1.59-4.64,3.77l-10.73,61.48h-19.14l14.79-84.54h19.14l-1.6,9.57l11.31-9.57h16.82
		L699.65,569.36z"/>
	<path d="M752.14,615.48l-3.33,19.14h-27.12c-10.59,0-17.69-8.56-15.81-19.14l14.94-84.54h19.14l-3.48,19.14h27.12l-9.14,19.29
		h-21.32l-7.4,42.2c-0.43,2.18,1.01,3.92,3.19,3.92H752.14z"/>
	<path d="M840.58,615.48c-1.88,10.59-11.89,19.14-22.62,19.14h-57.57l9.13-19.14h48c2.17,0,4.06-1.74,4.49-3.92l1.01-5.8
		c0.29-2.03-1.01-3.77-3.19-3.77h-34.66c-10.59,0-17.55-8.7-15.66-19.29l2.32-13.34c1.88-10.73,11.89-19.29,22.48-19.29h51.91
		l-9.13,19.29h-42.2c-2.18,0-4.21,1.59-4.64,3.77l-1.01,5.8c-0.29,2.03,1.16,3.77,3.34,3.77h34.51c10.73,0,17.69,8.7,15.8,19.29
		L840.58,615.48z"/>
</g>
</svg>
