<?xml version="1.0" encoding="UTF-8" standalone="no"?>
<!-- Generator: Adobe Illustrator 24.1.1, SVG Export Plug-In . SVG Version: 6.00 Build 0)  -->

<svg
   version="1.1"
   id="Layer_1"
   x="0px"
   y="0px"
   viewBox="0 0 751.86774 269.70999"
   xml:space="preserve"
   sodipodi:docname="spectra-logo.svg"
   width="751.86774"
   height="269.70999"
   inkscape:version="1.4.2 (2aeb623e1d, 2025-05-12)"
   xmlns:inkscape="http://www.inkscape.org/namespaces/inkscape"
   xmlns:sodipodi="http://sodipodi.sourceforge.net/DTD/sodipodi-0.dtd"
   xmlns="http://www.w3.org/2000/svg"
   xmlns:svg="http://www.w3.org/2000/svg"><defs
   id="defs17" /><sodipodi:namedview
   id="namedview17"
   pagecolor="#ffffff"
   bordercolor="#000000"
   borderopacity="0.25"
   inkscape:showpageshadow="2"
   inkscape:pageopacity="0.0"
   inkscape:pagecheckerboard="0"
   inkscape:deskcolor="#d1d1d1"
   showgrid="false"
   inkscape:zoom="0.50092593"
   inkscape:cx="374.30684"
   inkscape:cy="150.72089"
   inkscape:window-width="1920"
   inkscape:window-height="1011"
   inkscape:window-x="0"
   inkscape:window-y="32"
   inkscape:window-maximized="1"
   inkscape:current-layer="Layer_1" />
<style
   type="text/css"
   id="style1">
	.st0{fill:#D8D6D6;}
	.st1{fill:#EE334E;}
</style>
<g
   id="g5"
   transform="translate(-165.2565,-389.12)">
	<g
   id="g2">
		<path
   class="st1"
   d="M 279.43,484.94 H 234.4 l -1.5,9.52 c -1.57,8.77 4.38,15.65 12.84,15.65 h 58.86 c 6.77,0 13.01,1.27 18.64,3.49 -6.69,-17.06 -22.88,-28.66 -43.81,-28.66 z"
   id="path1" />
		<path
   d="m 323.24,513.6 c 3.21,8.2 4.26,17.64 2.53,27.69 l -2.5,13.78 c -5.32,30.99 -35.07,56.36 -66.06,56.36 h -78.66 l -12.01,25.17 h 115.84 c 30.99,0 60.74,-25.36 66.06,-56.36 l 2.5,-13.78 c 4.16,-24.21 -7.6,-44.93 -27.7,-52.86 z"
   id="path2" />
	</g>
	<g
   id="g4">
		<path
   class="st1"
   d="m 193.77,492.75 c 5.32,-30.99 35.38,-56.36 66.37,-56.36 h 62.9 l 12.11,-25.17 H 234.97 c -31,0 -61.05,25.36 -66.37,56.36 l -2.51,13.77 c -4.16,24.22 7.59,44.94 27.7,52.87 -3.21,-8.2 -4.26,-17.64 -2.53,-27.7 z"
   id="path3" />
		<path
   d="m 237.6,562.87 h 44.75 l 1.46,-9.52 c 1.57,-8.77 -4.07,-15.66 -12.84,-15.66 h -58.55 c -6.77,0 -13.01,-1.27 -18.63,-3.49 6.68,17.08 22.87,28.67 43.81,28.67 z"
   id="path4" />
	</g>
</g>
<g
   id="g11"
   transform="translate(-165.2565,-389.12)">
	<path
   d="m 461.28,466.7 c -2.47,14.36 -16.24,26.1 -30.6,26.1 h -53.65 l 9.14,-19.14 h 47.42 c 4.06,0 7.83,-3.34 8.56,-7.25 l 0.87,-5.66 c 0.73,-4.06 -1.89,-7.25 -5.94,-7.25 h -27.12 c -14.36,0 -23.93,-11.75 -21.46,-26.1 l 1.16,-6.38 c 2.46,-14.36 16.39,-26.1 30.74,-26.1 h 46.4 l -9.28,19.29 H 417.2 c -3.91,0 -7.83,3.19 -8.56,7.25 l -0.87,5.51 c -0.73,4.06 2.03,7.25 5.95,7.25 h 27.26 c 14.36,0 23.93,11.75 21.46,26.1 z"
   id="path5" />
	<path
   d="m 547.12,473.66 c -1.89,10.59 -11.89,19.14 -22.62,19.14 h -26.68 l -2.46,-19.14 h 28.71 c 2.17,0 4.06,-1.74 4.49,-3.92 l 6.67,-38.43 c 0.43,-2.18 -0.87,-3.77 -3.05,-3.77 h -34.66 l -15.81,89.47 h -19.14 l 19.14,-108.76 h 19.14 l -1.6,9.57 11.31,-9.57 h 28.71 c 10.73,0 17.84,8.56 15.95,19.29 z"
   id="path6" />
	<path
   d="m 625.85,431.31 c 0.43,-2.18 -0.87,-3.77 -3.05,-3.77 h -30.74 c -2.17,0 -4.2,1.59 -4.64,3.77 l -6.67,38.43 c -0.43,2.18 1.01,3.92 3.19,3.92 h 49.88 l -8.99,19.14 h -48.14 c -10.59,0 -17.69,-8.56 -15.81,-19.14 L 569,427.55 c 1.89,-10.73 11.89,-19.29 22.48,-19.29 h 38.43 c 10.73,0 17.84,8.56 15.95,19.29 l -5.8,32.63 h -48 l 9.28,-19.29 h 22.91 z"
   id="path7" />
	<path
   d="m 711.97,492.8 h -44.66 c -10.59,0 -17.69,-8.56 -15.81,-19.14 l 8.12,-46.11 c 1.89,-10.73 11.89,-19.29 22.48,-19.29 h 44.66 l -9.14,19.29 h -34.95 c -2.17,0 -4.2,1.59 -4.64,3.77 l -6.67,38.43 c -0.43,2.18 1.01,3.92 3.19,3.92 h 40.75 z"
   id="path8" />
	<path
   d="m 774.61,473.66 -3.34,19.14 h -27.12 c -10.59,0 -17.69,-8.56 -15.81,-19.14 l 14.94,-84.54 h 19.14 l -3.48,19.14 h 27.12 l -9.14,19.29 H 755.6 l -7.4,42.2 c -0.43,2.18 1.01,3.92 3.19,3.92 h 23.22 z"
   id="path9" />
	<path
   d="m 834.34,427.54 h -16.96 c -2.18,0 -4.21,1.59 -4.64,3.77 l -10.73,61.48 h -19.14 l 14.79,-84.54 h 19.14 l -1.6,9.57 11.31,-9.57 h 16.82 z"
   id="path10" />
	<path
   d="m 905.4,492.8 h -19.29 l 1.59,-9.57 -11.16,9.57 h -28.86 c -10.59,0 -17.69,-8.56 -15.81,-19.14 l 2.32,-13.49 c 1.88,-10.59 12.04,-19.29 22.62,-19.29 h 25.67 l 2.17,19.29 h -27.41 c -2.18,0 -4.21,1.74 -4.5,3.77 l -1.01,5.8 c -0.43,2.18 1.01,3.92 3.19,3.92 h 34.51 l 7.39,-42.34 c 0.43,-2.18 -0.87,-3.77 -3.05,-3.77 h -46.11 l 9.13,-19.29 h 44.08 c 10.73,0 17.84,8.56 15.95,19.29 z"
   id="path11" />
</g>
<g
   id="g17"
   transform="translate(-165.2565,-389.12)">
	<path
   d="m 461.28,608.52 c -2.47,14.36 -16.24,26.1 -30.6,26.1 h -53.65 l 9.14,-19.14 h 47.42 c 4.06,0 7.83,-3.34 8.56,-7.25 l 0.87,-5.66 c 0.73,-4.06 -1.89,-7.25 -5.94,-7.25 h -27.12 c -14.36,0 -23.93,-11.74 -21.46,-26.1 l 1.16,-6.38 c 2.46,-14.36 16.39,-26.1 30.74,-26.1 h 46.4 l -9.28,19.29 H 417.2 c -3.91,0 -7.83,3.19 -8.56,7.25 l -0.87,5.51 c -0.73,4.06 2.03,7.25 5.95,7.25 h 27.26 c 14.36,0 23.93,11.75 21.46,26.11 z"
   id="path12" />
	<path
   d="m 547.12,615.48 c -1.89,10.59 -11.89,19.14 -22.62,19.14 h -26.68 l -2.46,-19.14 h 28.71 c 2.17,0 4.06,-1.74 4.49,-3.92 l 6.67,-38.43 c 0.43,-2.18 -0.87,-3.77 -3.05,-3.77 h -34.66 l -15.81,89.47 h -19.14 l 19.14,-108.76 h 19.14 l -1.6,9.57 11.31,-9.57 h 28.71 c 10.73,0 17.84,8.56 15.95,19.29 z"
   id="path13" />
	<path
   d="m 645.86,569.36 -8.12,46.11 c -1.89,10.59 -11.89,19.14 -22.62,19.14 h -38.43 c -10.59,0 -17.69,-8.56 -15.81,-19.14 L 569,569.36 c 1.89,-10.73 11.89,-19.29 22.48,-19.29 h 38.43 c 10.73,0 17.83,8.56 15.95,19.29 z m -20.01,3.77 c 0.43,-2.18 -0.87,-3.77 -3.05,-3.77 h -30.74 c -2.17,0 -4.2,1.59 -4.64,3.77 l -6.67,38.43 c -0.43,2.18 1.01,3.92 3.19,3.92 h 30.74 c 2.17,0 4.06,-1.74 4.49,-3.92 z"
   id="path14" />
	<path
   d="m 699.65,569.36 h -16.97 c -2.17,0 -4.2,1.59 -4.64,3.77 l -10.73,61.48 h -19.14 l 14.79,-84.54 h 19.14 l -1.6,9.57 11.31,-9.57 h 16.82 z"
   id="path15" />
	<path
   d="m 752.14,615.48 -3.33,19.14 h -27.12 c -10.59,0 -17.69,-8.56 -15.81,-19.14 l 14.94,-84.54 h 19.14 l -3.48,19.14 h 27.12 l -9.14,19.29 h -21.32 l -7.4,42.2 c -0.43,2.18 1.01,3.92 3.19,3.92 h 23.21 z"
   id="path16" />
	<path
   d="m 840.58,615.48 c -1.88,10.59 -11.89,19.14 -22.62,19.14 h -57.57 l 9.13,-19.14 h 48 c 2.17,0 4.06,-1.74 4.49,-3.92 l 1.01,-5.8 c 0.29,-2.03 -1.01,-3.77 -3.19,-3.77 h -34.66 c -10.59,0 -17.55,-8.7 -15.66,-19.29 l 2.32,-13.34 c 1.88,-10.73 11.89,-19.29 22.48,-19.29 h 51.91 l -9.13,19.29 h -42.2 c -2.18,0 -4.21,1.59 -4.64,3.77 l -1.01,5.8 c -0.29,2.03 1.16,3.77 3.34,3.77 h 34.51 c 10.73,0 17.69,8.7 15.8,19.29 z"
   id="path17" />
</g>
</svg>
